<svg width="38" height="38" viewBox="0 0 38 38" fill="none" xmlns="http://www.w3.org/2000/svg">
<path d="M19 0C15.2422 0 11.5687 1.11433 8.44417 3.20208C5.31964 5.28982 2.88436 8.25722 1.4463 11.729C0.00823238 15.2008 -0.368031 19.0211 0.365088 22.7067C1.09821 26.3924 2.90778 29.7778 5.56498 32.435C8.22218 35.0922 11.6077 36.9018 15.2933 37.6349C18.9789 38.368 22.7992 37.9918 26.271 36.5537C29.7428 35.1156 32.7102 32.6804 34.7979 29.5558C36.8857 26.4313 38 22.7578 38 19C37.9943 13.9626 35.9906 9.13326 32.4287 5.57132C28.8667 2.00937 24.0374 0.00574712 19 0ZM29.8463 31.1139C29.8192 29.3337 29.094 27.6355 27.8267 26.385C26.5595 25.1345 24.8518 24.4319 23.0714 24.4286H14.9286C13.1483 24.4319 11.4405 25.1345 10.1733 26.385C8.90604 27.6355 8.18077 29.3337 8.15372 31.1139C5.69263 28.9163 3.95707 26.023 3.17685 22.8172C2.39664 19.6113 2.60857 16.2441 3.78459 13.1614C4.96061 10.0786 7.04523 7.42583 9.76244 5.5542C12.4796 3.68256 15.7013 2.68039 19.0007 2.68039C22.3001 2.68039 25.5217 3.68256 28.2389 5.5542C30.9561 7.42583 33.0408 10.0786 34.2168 13.1614C35.3928 16.2441 35.6047 19.6113 34.8245 22.8172C34.0443 26.023 32.3087 28.9163 29.8476 31.1139H29.8463Z" fill="#F60D9C"/>
</svg>
