<svg width="19" height="20" viewBox="0 0 19 20" fill="none" xmlns="http://www.w3.org/2000/svg">
<path d="M9.80354 6.97615C8.13845 6.97615 6.7796 8.33499 6.7796 10.0001C6.7796 11.6652 8.13845 13.024 9.80354 13.024C11.4686 13.024 12.8275 11.6652 12.8275 10.0001C12.8275 8.33499 11.4686 6.97615 9.80354 6.97615ZM18.8731 10.0001C18.8731 8.74786 18.8844 7.50698 18.8141 6.25703C18.7438 4.80517 18.4126 3.51665 17.3509 2.45498C16.287 1.39105 15.0007 1.06211 13.5489 0.991785C12.2966 0.921461 11.0558 0.932804 9.80581 0.932804C8.55359 0.932804 7.31271 0.921461 6.06275 0.991785C4.6109 1.06211 3.32238 1.39331 2.26071 2.45498C1.19677 3.51892 0.867835 4.80517 0.79751 6.25703C0.727186 7.50925 0.738529 8.75013 0.738529 10.0001C0.738529 11.25 0.727186 12.4932 0.79751 13.7431C0.867835 15.195 1.19904 16.4835 2.26071 17.5452C3.32464 18.6091 4.6109 18.9381 6.06275 19.0084C7.31498 19.0787 8.55586 19.0674 9.80581 19.0674C11.058 19.0674 12.2989 19.0787 13.5489 19.0084C15.0007 18.9381 16.2893 18.6069 17.3509 17.5452C18.4149 16.4813 18.7438 15.195 18.8141 13.7431C18.8867 12.4932 18.8731 11.2523 18.8731 10.0001ZM9.80354 14.6528C7.22877 14.6528 5.1508 12.5749 5.1508 10.0001C5.1508 7.42531 7.22877 5.34735 9.80354 5.34735C12.3783 5.34735 14.4563 7.42531 14.4563 10.0001C14.4563 12.5749 12.3783 14.6528 9.80354 14.6528ZM14.6468 6.24341C14.0457 6.24341 13.5602 5.75795 13.5602 5.15679C13.5602 4.55563 14.0457 4.07017 14.6468 4.07017C15.248 4.07017 15.7335 4.55563 15.7335 5.15679C15.7336 5.29954 15.7057 5.44092 15.6511 5.57284C15.5966 5.70475 15.5165 5.82461 15.4156 5.92555C15.3147 6.02649 15.1948 6.10652 15.0629 6.16107C14.931 6.21561 14.7896 6.24359 14.6468 6.24341Z" fill="white"/>
</svg>
