<svg width="19" height="20" viewBox="0 0 19 20" fill="none" xmlns="http://www.w3.org/2000/svg">
<path d="M3.94111 0.932129C1.98671 0.932129 0.387146 2.53165 0.387146 4.48609V15.5147C0.387146 17.4691 1.98667 19.068 3.94111 19.068H14.9697C16.9241 19.068 18.5231 17.4691 18.5231 15.5147V4.48609C18.5231 2.53169 16.9241 0.932129 14.9697 0.932129H3.94111ZM4.83498 3.92492C5.77208 3.92492 6.34929 4.54011 6.3671 5.34876C6.3671 6.13956 5.77204 6.77203 4.81686 6.77203H4.79928C3.88002 6.77203 3.28586 6.13959 3.28586 5.34876C3.28586 4.54012 3.898 3.92492 4.83497 3.92492H4.83498ZM12.9104 7.70446C14.7127 7.70446 16.0637 8.8824 16.0637 11.4137V16.1393H13.3248V11.7305C13.3248 10.6227 12.9284 9.86685 11.9372 9.86685C11.1806 9.86685 10.7295 10.3763 10.5315 10.8684C10.4592 11.0445 10.4414 11.2904 10.4414 11.5367V16.1393H7.70253C7.70253 16.1393 7.73847 8.67102 7.70253 7.89773H10.442V9.06482C10.8059 8.50327 11.457 7.70445 12.9104 7.70445V7.70446ZM3.44741 7.89833H6.18628V16.1393H3.44741V7.89833Z" fill="white"/>
</svg>
