<svg width="23" height="20" viewBox="0 0 23 20" fill="none" xmlns="http://www.w3.org/2000/svg">
<path d="M22.7852 3.08338C21.9648 3.44691 21.0835 3.69254 20.157 3.80357C21.113 3.23154 21.8282 2.33123 22.1692 1.27063C21.271 1.80413 20.288 2.17965 19.2629 2.38088C18.5735 1.64483 17.6605 1.15697 16.6654 0.993038C15.6704 0.829102 14.6491 0.998262 13.76 1.47426C12.871 1.95025 12.1639 2.70645 11.7487 3.62544C11.3335 4.54444 11.2333 5.57481 11.4636 6.5566C9.64368 6.46522 7.8633 5.99219 6.238 5.1682C4.61271 4.34421 3.17884 3.18769 2.02944 1.77368C1.63643 2.45162 1.41045 3.23764 1.41045 4.07475C1.41001 4.82834 1.59559 5.57038 1.95072 6.23505C2.30585 6.89972 2.81955 7.46645 3.44624 7.88497C2.71944 7.86184 2.00868 7.66546 1.37312 7.31216V7.37111C1.37304 8.42805 1.73865 9.45246 2.40789 10.2705C3.07714 11.0886 4.0088 11.6499 5.0448 11.8593C4.37058 12.0417 3.66371 12.0686 2.97758 11.9379C3.26987 12.8473 3.83924 13.6426 4.60598 14.2123C5.37271 14.7821 6.29842 15.0978 7.25351 15.1154C5.63219 16.3881 3.62986 17.0785 1.56864 17.0755C1.20352 17.0756 0.8387 17.0543 0.476074 17.0116C2.56833 18.3569 5.00387 19.0708 7.49128 19.068C15.9115 19.068 20.5146 12.0941 20.5146 6.04569C20.5146 5.84918 20.5097 5.65071 20.5009 5.45421C21.3962 4.8067 22.1691 4.00488 22.7833 3.08633L22.7852 3.08338Z" fill="white"/>
</svg>
